<?xml version="1.0" encoding="UTF-8"?>
<svg version="1.1" xmlns="http://www.w3.org/2000/svg" width="1768" height="466">
<path d="M0 0 C0.96341309 0.55800293 1.92682617 1.11600586 2.91943359 1.69091797 C4.56903076 2.64043335 4.56903076 2.64043335 6.25195312 3.60913086 C7.44062484 4.30040004 8.62926324 4.99172649 9.81787109 5.68310547 C11.06477551 6.4029947 12.31201489 7.12230401 13.55957031 7.84106445 C16.15085569 9.33455018 18.74068397 10.83051865 21.32958984 12.328125 C26.1572016 15.11808683 31.00090896 17.87960692 35.8449707 20.64086914 C69.24464585 39.68044494 69.24464585 39.68044494 75.48464966 43.51817322 C78.21786467 45.11961374 80.95540447 46.25309862 83.92437744 47.35107422 C89.39193109 49.58219034 94.32933339 51.97712891 98.19287109 56.55810547 C101.3935412 64.67831079 100.47003442 73.95306387 100.11935592 82.51071715 C99.99968473 85.92791629 99.98935461 89.34550965 99.96687317 92.76448059 C99.90806151 99.2234128 99.75254344 105.67615569 99.56123286 112.13237411 C99.34804618 119.48832069 99.2442028 126.84458079 99.1490196 134.20285261 C98.95098617 149.32470599 98.61733212 164.44078394 98.19287109 179.55810547 C97.01630196 180.22916824 97.01630196 180.22916824 95.81596375 180.91378784 C92.84350148 182.60956216 89.8713758 184.30592361 86.89945984 186.00265503 C85.62482964 186.73021797 84.35007422 187.45756158 83.07518005 188.18466187 C74.68898628 192.96774068 66.33089547 197.79487491 58.00537109 202.68310547 C48.92983324 207.99813426 39.78381687 213.17195582 30.59155273 218.28222656 C21.94990319 223.0992405 13.4029608 228.06912849 4.89404297 233.11669922 C3.48735352 233.94621094 3.48735352 233.94621094 2.05224609 234.79248047 C0.82199707 235.52289551 0.82199707 235.52289551 -0.43310547 236.26806641 C-1.60824707 236.90663574 -1.60824707 236.90663574 -2.80712891 237.55810547 C-3.6019165 238.00734375 -4.3967041 238.45658203 -5.21557617 238.91943359 C-9.04115952 239.86222455 -10.76415153 238.47283735 -14.13134766 236.54248047 C-14.71882278 236.21145325 -15.30629791 235.88042603 -15.91157532 235.53936768 C-17.78273591 234.47902415 -19.63808458 233.39379547 -21.49462891 232.30810547 C-22.75479101 231.59166649 -24.01585076 230.87680394 -25.27783203 230.16357422 C-34.39899079 224.96624359 -34.39899079 224.96624359 -36.80712891 222.55810547 C-37.04763794 220.45736694 -37.04763794 220.45736694 -37.03417969 217.83300781 C-37.03402863 216.85214203 -37.03387756 215.87127625 -37.03372192 214.86068726 C-37.02339935 213.79919464 -37.01307678 212.73770203 -37.00244141 211.64404297 C-36.99961151 210.55926666 -36.99678162 209.47449036 -36.99386597 208.35684204 C-36.98264469 204.88215234 -36.95753653 201.40771765 -36.93212891 197.93310547 C-36.92210163 195.58154668 -36.91297534 193.22998387 -36.90478516 190.87841797 C-36.88269902 185.10489303 -36.84920235 179.33151746 -36.80712891 173.55810547 C-32.59544881 174.81261577 -29.2587448 176.36903756 -25.61181641 178.80810547 C-24.16548828 179.71882813 -24.16548828 179.71882813 -22.68994141 180.64794922 C-20.68702272 181.91993265 -18.70467364 183.22490673 -16.74462891 184.56201172 C-13.72577171 186.4157662 -11.25759097 187.73535256 -7.80712891 188.55810547 C-3.22777351 187.44293907 0.29001289 185.13931984 4.19287109 182.55810547 C6.03590337 181.49794275 7.88350677 180.44568262 9.73583984 179.40185547 C11.61963296 178.29113455 13.50114573 177.17653717 15.38037109 176.05810547 C17.22637828 174.9615745 19.07415224 173.86801444 20.92333984 172.77685547 C21.96546631 172.1189502 23.00759277 171.46104492 24.08129883 170.78320312 C27.42131699 168.81637115 30.84446461 167.57533208 34.49389648 166.28222656 C41.6592825 163.47086527 48.2227426 160.62252858 53.19287109 154.55810547 C57.17338501 143.55522892 55.97148979 131.25374172 55.37304688 119.7567749 C55.17601549 115.44753099 55.12359414 111.13662388 55.05810547 106.82373047 C54.90920791 98.39377834 54.60263201 89.97939541 54.19287109 81.55810547 C53.02646843 81.10017609 53.02646843 81.10017609 51.83650208 80.63299561 C49.26120344 79.58588914 46.9336064 78.38188839 44.51708984 77.01123047 C43.61821045 76.50269531 42.71933105 75.99416016 41.79321289 75.47021484 C40.3513562 74.6474707 40.3513562 74.6474707 38.88037109 73.80810547 C37.87723877 73.23898438 36.87410645 72.66986328 35.84057617 72.08349609 C27.32783216 67.239822 18.86738533 62.30703743 10.43969727 57.31689453 C8.58703476 56.22643468 6.72468219 55.15223508 4.85205078 54.09643555 C2.19287109 52.55810547 2.19287109 52.55810547 -0.31787109 50.83813477 C-2.87388583 49.22934604 -4.84626539 48.17366608 -7.80712891 47.55810547 C-12.18775958 48.67737867 -15.65743402 50.93436134 -19.43212891 53.37060547 C-20.50809326 54.019729 -21.58405762 54.66885254 -22.69262695 55.33764648 C-24.94808084 56.69998465 -27.19402845 58.07817358 -29.43066406 59.47119141 C-33.7514169 62.14174782 -38.14140449 64.68122303 -42.54101562 67.21899414 C-46.32316802 69.401605 -50.10110938 71.58708 -53.81822586 73.87899685 C-56.80712891 75.55810547 -56.80712891 75.55810547 -59.92231369 76.71114445 C-63.62205894 78.25806953 -66.00478691 79.66562842 -68.80712891 82.55810547 C-71.12057122 88.74261532 -70.37954424 95.86991995 -70.26123047 102.35473633 C-70.26771079 104.39517458 -70.27946709 106.43560189 -70.2960968 108.47598267 C-70.32624997 114.00740196 -70.28265282 119.53606791 -70.22578526 125.06718516 C-70.17887696 130.8501392 -70.19982149 136.63283815 -70.21356201 142.41590881 C-70.22926617 153.36320652 -70.18396769 164.30936766 -70.11673999 175.25643593 C-70.04316581 187.72071568 -70.03761384 200.18473547 -70.03776979 212.64919841 C-70.03656689 238.28592846 -69.94995993 263.92180094 -69.80712891 289.55810547 C-74.29333646 288.12068919 -78.11863379 286.40332572 -82.20166016 284.03857422 C-82.79331467 283.69812576 -83.38496918 283.35767731 -83.99455261 283.00691223 C-85.87256837 281.92489305 -87.74618851 280.83552361 -89.61962891 279.74560547 C-91.48328735 278.66807557 -93.34783002 277.59209033 -95.21257019 276.51643372 C-96.91324745 275.53434802 -98.61184234 274.54865882 -100.31030273 273.56274414 C-104.45316985 271.18774715 -108.63272278 268.87721998 -112.80712891 266.55810547 C-112.80712891 197.25810547 -112.80712891 127.95810547 -112.80712891 56.55810547 C-103.56712891 51.27810547 -94.32712891 45.99810547 -84.80712891 40.55810547 C-75.09487978 34.95490837 -75.09487978 34.95490837 -65.38525391 29.34716797 C-60.84041632 26.72493606 -56.28800409 24.11652896 -51.72900391 21.51904297 C-51.13652863 21.1812381 -50.54405334 20.84343323 -49.93362427 20.49539185 C-46.9695127 18.80579436 -44.00373503 17.1192367 -41.03515625 15.4375 C-35.41814394 12.24369857 -29.85162291 8.997871 -24.36181641 5.58935547 C-23.35795898 4.97205566 -22.35410156 4.35475586 -21.31982422 3.71875 C-19.44623041 2.56018853 -17.58280263 1.38495981 -15.73193359 0.19042969 C-14.90338867 -0.31987793 -14.07484375 -0.83018555 -13.22119141 -1.35595703 C-12.50914551 -1.80922363 -11.79709961 -2.26249023 -11.06347656 -2.72949219 C-6.9267308 -4.03559737 -3.67751926 -1.88897449 0 0 Z " fill="#F9BB24" transform="translate(233.80712890625,114.44189453125)"/>
<path d="M0 0 C2.40576172 1.07885742 2.40576172 1.07885742 4.9296875 2.60546875 C5.87779297 3.17007812 6.82589844 3.7346875 7.80273438 4.31640625 C9.32350586 5.24259766 9.32350586 5.24259766 10.875 6.1875 C13.04860232 7.48454347 15.22310355 8.78008158 17.3984375 10.07421875 C19.05311035 11.06301025 19.05311035 11.06301025 20.74121094 12.07177734 C25.61830329 14.95754865 30.55579937 17.73131622 35.5 20.5 C43.33712936 24.90369478 51.12139073 29.38844632 58.875 33.9375 C67.03150813 38.72109579 75.2379649 43.40113227 83.5 48 C92.6557647 53.09757221 101.73444926 58.31084708 110.77392578 63.61157227 C118.44487388 68.1055182 126.15185028 72.53410268 133.875 76.9375 C136.21625824 78.27324053 138.55736397 79.60924826 140.8984375 80.9453125 C141.47903427 81.27665695 142.05963104 81.6080014 142.65782166 81.9493866 C148.70211003 85.39955979 154.7436989 88.85437588 160.77740479 92.32302856 C162.45975592 93.2893835 164.14367788 94.25300211 165.82763672 95.21655273 C166.8435791 95.80122314 167.85952148 96.38589355 168.90625 96.98828125 C169.79634766 97.49915283 170.68644531 98.01002441 171.60351562 98.53637695 C172.39435547 99.01937256 173.18519531 99.50236816 174 100 C174.70006165 100.421604 175.40012329 100.84320801 176.12139893 101.27758789 C178 103 178 103 178.48101807 105.29692078 C178.47213562 106.19626846 178.46325317 107.09561615 178.45410156 108.0222168 C178.45364838 109.55346443 178.45364838 109.55346443 178.45318604 111.11564636 C178.43254089 112.21572525 178.41189575 113.31580414 178.390625 114.44921875 C178.38496521 115.5769722 178.37930542 116.70472565 178.37347412 117.86665344 C178.35105631 121.47403135 178.30084784 125.08042153 178.25 128.6875 C178.22994209 131.13084505 178.21169009 133.57420564 178.1953125 136.01757812 C178.15457292 142.0124068 178.07628722 148.00509592 178 154 C164.14 154 150.28 154 136 154 C136.37125 150.184375 136.7425 146.36875 137.125 142.4375 C137.19207901 136.49468342 136.95205074 131.17969385 132.85205078 126.6015625 C126.71237143 122.00423402 119.71411221 118.91304324 112.75634766 115.765625 C107.17427046 113.20173984 101.9211109 110.06738803 96.62823486 106.9616394 C94.28534565 105.59305769 91.92790813 104.25071786 89.56988525 102.90843201 C82.61900002 98.95121313 75.71199434 94.92090491 68.8125 90.875 C59.56746146 85.45491034 50.24181923 80.19259427 40.88012695 74.97705078 C34.88202946 71.63000166 28.91891413 68.23498764 23 64.75 C22.33057373 64.36569824 21.66114746 63.98139648 20.97143555 63.58544922 C17.40210193 61.5174985 14.0345938 59.32874794 10.7109375 56.8828125 C4.76403027 52.62667866 4.76403027 52.62667866 -2 50 C-7.09524742 50.95081456 -10.67813228 53.48057362 -14.78808594 56.4609375 C-19.06898654 59.43961271 -23.66390452 61.91241382 -28.1875 64.5 C-30.26818676 65.71790258 -32.34758085 66.93801585 -34.42578125 68.16015625 C-41.21362262 72.13613969 -48.04044573 76.04262907 -54.875 79.9375 C-63.93107491 85.10022915 -72.97458362 90.28377147 -82 95.5 C-91.19628857 100.81286349 -100.4045611 106.10420052 -109.625 111.375 C-110.72585937 112.00470703 -111.82671875 112.63441406 -112.9609375 113.28320312 C-121.61904128 118.22847173 -130.30907684 123.11135572 -139 128 C-139.33 196.64 -139.66 265.28 -140 336 C-144.70543544 334.43152152 -148.17083615 332.93705537 -152.39453125 330.515625 C-153.28201302 330.00850983 -153.28201302 330.00850983 -154.18742371 329.4911499 C-155.43347362 328.77759741 -156.67802749 328.06142665 -157.92114258 327.34277344 C-159.79337434 326.26105027 -161.67061365 325.18848181 -163.54882812 324.1171875 C-170.37538249 320.1994999 -170.37538249 320.1994999 -172.16723537 319.05903244 C-174.01681594 317.91911991 -174.01681594 317.91911991 -176.26929569 317.17573929 C-179.30717718 315.80486459 -180.91566289 314.6308284 -183 312 C-184.42818815 305.44245806 -184.23087586 298.91346527 -184.16455078 292.22851562 C-184.17674898 290.178253 -184.19277527 288.12801011 -184.21234131 286.07780457 C-184.25337162 280.51339304 -184.23746517 274.95048322 -184.20892954 269.38604546 C-184.1861437 263.56318997 -184.20727535 257.74046308 -184.22140503 251.91760254 C-184.23777919 242.13900666 -184.21620028 232.36102253 -184.17333984 222.58251953 C-184.12435828 211.27693805 -184.14022383 199.97281722 -184.18977749 188.66727114 C-184.23061919 178.96085243 -184.23638308 169.25487346 -184.21282947 159.54839659 C-184.19879761 153.75099971 -184.1969278 147.95428941 -184.22665787 142.15693665 C-184.25265791 136.70619146 -184.23462655 131.2573292 -184.18260956 125.80678749 C-184.17070892 123.80653829 -184.17412859 121.8061306 -184.19397354 119.80594444 C-184.33028999 104.67117798 -184.33028999 104.67117798 -181.02209187 100.51525116 C-178.70714424 98.93895999 -176.62884422 97.93512121 -174 97 C-173.03118896 96.42443359 -172.06237793 95.84886719 -171.06420898 95.25585938 C-170.21673096 94.78986328 -169.36925293 94.32386719 -168.49609375 93.84375 C-167.52115967 93.30379395 -166.54622559 92.76383789 -165.54174805 92.20751953 C-164.51734619 91.64403809 -163.49294434 91.08055664 -162.4375 90.5 C-153.96580799 85.79885155 -145.54384938 81.02830666 -137.1875 76.125 C-128.57108196 71.07289434 -119.9257115 66.07447489 -111.25 61.125 C-110.66634674 60.79196869 -110.08269348 60.45893738 -109.48135376 60.11581421 C-106.51240496 58.42200953 -103.54297977 56.72904238 -100.57324219 55.03662109 C-94.67198311 51.67347949 -88.7730765 48.30621933 -82.875 44.9375 C-82.29463989 44.60606995 -81.71427979 44.27463989 -81.11633301 43.9331665 C-71.6696822 38.53737878 -62.24253805 33.10829256 -52.82373047 27.6640625 C-47.05730664 24.33325075 -41.28408226 21.01486727 -35.5 17.71484375 C-34.872146 17.35657501 -34.24429199 16.99830627 -33.59741211 16.62918091 C-30.56985211 14.90205822 -27.54140642 13.17651248 -24.51171875 11.453125 C-22.86623047 10.51533203 -22.86623047 10.51533203 -21.1875 9.55859375 C-20.13949219 8.96288574 -19.09148437 8.36717773 -18.01171875 7.75341797 C-14.34847742 5.62068457 -10.77167727 3.36248139 -7.21875 1.05102539 C-4.5295404 -0.22285746 -2.94800936 -0.37483868 0 0 Z " fill="#F05625" transform="translate(229,25)"/>
<path d="M0 0 C0.81791016 -0.020625 1.63582031 -0.04125 2.47851562 -0.0625 C7.37786407 -0.09281306 11.66484002 0.48079315 16.40478516 1.73852539 C23.45446786 3.4107357 30.1720328 3.72331006 37.39453125 3.76171875 C38.66350754 3.77966995 39.93248383 3.79762115 41.23991394 3.81611633 C44.56558541 3.86067678 47.89090383 3.89320408 51.21673584 3.91955566 C54.629646 3.94967591 58.04233811 3.99594163 61.45507812 4.04101562 C68.11589785 4.12783443 74.7762122 4.18830171 81.4375 4.25 C81.4375 12.83 81.4375 21.41 81.4375 30.25 C71.8675 30.25 62.2975 30.25 52.4375 30.25 C54.4175 33.55 56.3975 36.85 58.4375 40.25 C63.50342027 52.78735614 62.70992852 67.61006053 58.4375 80.25 C53.16787094 92.59505001 45.09398968 100.80781306 33.4375 107.25 C32.71949219 107.65089844 32.00148438 108.05179687 31.26171875 108.46484375 C17.15880803 115.50301953 -1.10417581 116.55286131 -16.01171875 111.80859375 C-18.92878344 111.16978785 -20.72639618 111.35590625 -23.5625 112.25 C-27.28601105 115.97351105 -29.44376904 119.89914834 -29.6328125 125.234375 C-29.38794696 129.06580049 -28.79812681 130.93814099 -26.4375 134.0625 C-17.63170605 140.76256061 -7.70643557 140.3859203 2.84765625 140.4609375 C5.07748112 140.48902049 7.30729872 140.51768504 9.53710938 140.546875 C13.0100065 140.58793099 16.48277018 140.62486854 19.95581055 140.65136719 C61.80910649 140.99743479 61.80910649 140.99743479 76.4375 155.25 C83.60988998 164.29420883 84.93887412 174.88262309 84.26171875 186.18359375 C82.48641349 198.5390011 75.74563615 209.88296967 65.84082031 217.47363281 C46.88631163 231.03114588 25.71779261 236.42847246 2.63427734 236.49023438 C0.47062412 236.49985275 -1.69204111 236.53089549 -3.85546875 236.5625 C-22.76518992 236.70569003 -43.78385981 232.80135462 -58 219.375 C-65.19165427 211.63919193 -68.08100158 202.28788409 -67.80859375 191.82421875 C-66.62783946 179.47315407 -59.69755251 170.21967544 -50.5625 162.25 C-48.92415371 161.20424705 -47.26882228 160.18072125 -45.5625 159.25 C-45.2325 158.59 -44.9025 157.93 -44.5625 157.25 C-45.4596875 156.84587891 -45.4596875 156.84587891 -46.375 156.43359375 C-52.69288355 153.01516747 -55.72126845 146.74067855 -57.8671875 140.140625 C-60.00442175 131.25549386 -58.65575026 123.36447853 -54.5625 115.25 C-50.98541491 109.6721724 -46.83378636 105.23560676 -41.5625 101.25 C-42.2946875 100.5384375 -43.026875 99.826875 -43.78125 99.09375 C-56.08419488 86.51433445 -61.84456071 73.00629042 -61.80688477 55.66552734 C-61.59101963 40.75813478 -56.66101557 28.18000989 -46.25 17.3125 C-33.32942054 5.23342368 -17.54746864 0.10707837 0 0 Z M-21.6875 34.375 C-28.56090966 42.89009018 -30.29191992 53.2937119 -29.30859375 64.01953125 C-27.80544307 72.83530687 -23.94605094 81.07051207 -16.74609375 86.66015625 C-8.3119774 92.32141243 -0.42919555 93.05000527 9.4375 91.25 C16.80368757 89.02744341 23.01013666 83.51012759 26.79296875 76.87109375 C31.48366618 66.59220083 32.43436928 54.01771765 28.875 43.1875 C25.21650476 34.78698304 20.00917848 29.98802386 11.76953125 26.16015625 C-0.31798528 21.4425828 -12.88545939 25.02420374 -21.6875 34.375 Z M-27.015625 167.33203125 C-33.57933557 173.65316991 -37.71840658 180.027335 -38.25 189.3125 C-37.95140967 195.59096703 -35.89883556 199.74723791 -31.5625 204.25 C-18.43995398 215.22672089 0.39415801 214.17892066 16.4375 213.25 C27.78572885 211.93511463 38.27683739 207.14647029 46 198.625 C50.46212891 192.79980001 51.20267223 187.49522451 50.4375 180.25 C48.7039593 176.05300672 46.29618282 173.61245887 42.4375 171.25 C31.26286526 166.91882645 19.02403182 167.72439775 7.25 167.625 C4.14198887 167.58826171 1.03409413 167.54745485 -2.07380676 167.50234985 C-3.99486906 167.47555586 -5.91601506 167.45402457 -7.83720398 167.43881226 C-12.8681853 167.38024598 -17.74224926 167.07965004 -22.72401428 166.35566711 C-24.72780733 166.10049579 -24.72780733 166.10049579 -27.015625 167.33203125 Z " fill="#F15625" transform="translate(532.5625,142.75)"/>
<path d="M0 0 C16.69858413 11.94533589 25.00166962 29.71442504 28.76171875 49.36328125 C29.9826335 57.21476916 30.01796334 65.07486028 29.99609375 73 C29.99521759 73.77501862 29.99434143 74.55003723 29.99343872 75.34854126 C29.95033878 86.89917663 29.56927422 97.8978192 25.62109375 108.875 C25.3797168 109.5546582 25.13833984 110.23431641 24.88964844 110.93457031 C17.81033991 130.12439406 5.74327391 145.1137809 -12.37890625 154.875 C-26.2351228 161.08640742 -42.79312182 162.41212292 -57.37890625 157.875 C-64.62452024 155.09006687 -70.9747211 151.21795789 -77.37890625 146.875 C-78.36890625 146.215 -79.35890625 145.555 -80.37890625 144.875 C-80.37890625 169.955 -80.37890625 195.035 -80.37890625 220.875 C-91.59890625 220.875 -102.81890625 220.875 -114.37890625 220.875 C-114.37890625 146.625 -114.37890625 72.375 -114.37890625 -4.125 C-105.13890625 -4.125 -95.89890625 -4.125 -86.37890625 -4.125 C-84.12890625 7.125 -84.12890625 7.125 -84.37890625 12.875 C-83.363125 12.15054688 -82.34734375 11.42609375 -81.30078125 10.6796875 C-56.70199883 -6.68115687 -28.04997471 -16.67160458 0 0 Z M-76.37890625 35.875 C-77.07219025 36.25420593 -77.76547424 36.63341187 -78.47976685 37.02410889 C-80.83415651 39.31868447 -80.89038328 40.97166078 -80.9876709 44.1839447 C-80.98900024 44.9008699 -80.99032959 45.6177951 -80.99169922 46.35644531 C-81.00834625 47.11617142 -81.02499329 47.87589752 -81.04214478 48.65864563 C-81.09038678 51.17367993 -81.10789348 53.6876769 -81.12109375 56.203125 C-81.13902734 57.95327058 -81.15727105 59.703413 -81.17581177 61.45355225 C-81.20881065 65.12552335 -81.22419443 68.79712948 -81.22998047 72.46923828 C-81.24073592 77.16581856 -81.31601608 81.85894735 -81.4074688 86.55455399 C-81.46709345 90.17159381 -81.4814292 93.78780787 -81.48343277 97.40529633 C-81.49182595 99.13572712 -81.51665249 100.86616163 -81.55846786 102.59610748 C-82.06022504 112.11923303 -82.06022504 112.11923303 -78.25518799 120.43518066 C-75.69085593 122.26869148 -73.25315183 123.5936998 -70.37890625 124.875 C-68.68893209 125.80803261 -67.00106767 126.74490868 -65.31640625 127.6875 C-55.13434267 132.50891329 -43.70414889 133.72067117 -32.921875 130.03515625 C-19.93986839 124.11248964 -13.3186542 114.31269422 -8.421875 101.34375 C-2.29296822 80.95997014 -2.95524459 56.80976145 -11.69140625 37.3125 C-16.46387791 28.71916735 -23.00028603 23.80733345 -32.37890625 20.875 C-49.8821055 17.42546438 -63.33938384 24.94010226 -76.37890625 35.875 Z " fill="#F9BC25" transform="translate(1011.37890625,151.125)"/>
<path d="M0 0 C21.12 0 42.24 0 64 0 C64.36147302 31.24733401 64.36147302 31.24733401 64.45228481 46.67618752 C64.50216976 55.02271179 64.56550901 63.36842711 64.67895508 71.71435547 C64.76872998 78.32201495 64.82673943 84.92906429 64.84679645 91.53731668 C64.85851988 95.03595739 64.88601381 98.53285286 64.95157051 102.03093338 C65.02420437 105.93843242 65.02590498 109.84423265 65.02172852 113.75244141 C65.054086 114.90906281 65.08644348 116.0656842 65.11978149 117.25735474 C65.03082575 124.93948142 65.03082575 124.93948142 62.03089809 128.02582169 C59.7448723 129.57176668 57.4907574 130.81916594 55 132 C54.03118896 132.57556641 53.06237793 133.15113281 52.06420898 133.74414062 C50.79299194 134.44313477 50.79299194 134.44313477 49.49609375 135.15625 C48.52115967 135.69620605 47.54622559 136.23616211 46.54174805 136.79248047 C45.51734619 137.35596191 44.49294434 137.91944336 43.4375 138.5 C34.96580799 143.20114845 26.54384938 147.97169334 18.1875 152.875 C9.57108196 157.92710566 0.9257115 162.92552511 -7.75 167.875 C-8.33365326 168.20803131 -8.91730652 168.54106262 -9.51864624 168.88418579 C-12.48759504 170.57799047 -15.45702023 172.27095762 -18.42675781 173.96337891 C-24.32801689 177.32652051 -30.2269235 180.69378067 -36.125 184.0625 C-36.70536011 184.39393005 -37.28572021 184.72536011 -37.88366699 185.0668335 C-47.3303178 190.46262122 -56.75746195 195.89170744 -66.17626953 201.3359375 C-71.94269336 204.66674925 -77.71591774 207.98513273 -83.5 211.28515625 C-84.44178101 211.82255936 -84.44178101 211.82255936 -85.40258789 212.37081909 C-88.43014789 214.09794178 -91.45859358 215.82348752 -94.48828125 217.546875 C-95.58527344 218.17207031 -96.68226563 218.79726563 -97.8125 219.44140625 C-99.38451172 220.33496826 -99.38451172 220.33496826 -100.98828125 221.24658203 C-104.65152258 223.37931543 -108.22832273 225.63751861 -111.78125 227.94897461 C-114.49337708 229.2337135 -116.0250543 229.39976716 -119 229 C-121.72314453 227.74658203 -121.72314453 227.74658203 -124.6328125 226.0078125 C-126.21255859 225.07388672 -126.21255859 225.07388672 -127.82421875 224.12109375 C-128.91347656 223.46238281 -130.00273437 222.80367187 -131.125 222.125 C-132.77048828 221.14853516 -132.77048828 221.14853516 -134.44921875 220.15234375 C-138.34750792 217.83250296 -142.22516136 215.51655909 -146 213 C-146.36076355 210.86129761 -146.36076355 210.86129761 -146.34057617 208.18310547 C-146.34034958 207.18221893 -146.34012299 206.1813324 -146.33988953 205.15011597 C-146.32440567 204.06674957 -146.30892181 202.98338318 -146.29296875 201.8671875 C-146.28872391 200.76021515 -146.28447906 199.6532428 -146.28010559 198.51272583 C-146.26327214 194.9665729 -146.2256108 191.42098203 -146.1875 187.875 C-146.17245922 185.47526861 -146.15876977 183.07552833 -146.14648438 180.67578125 C-146.11335338 174.78366141 -146.06310777 168.89187085 -146 163 C-132.20454281 169.60012765 -132.20454281 169.60012765 -126.20141602 174.22631836 C-123.19243763 176.44999507 -120.57429494 177.77878256 -117 179 C-112.01227161 177.95711134 -108.34230318 175.40160622 -104.24414062 172.52294922 C-99.92480472 169.59170277 -95.338112 167.09583661 -90.8125 164.5 C-88.73196951 163.28183049 -86.65257173 162.06172466 -84.57421875 160.83984375 C-77.78637738 156.86386031 -70.95955427 152.95737093 -64.125 149.0625 C-55.06892509 143.89977085 -46.02541638 138.71622853 -37 133.5 C-27.80371143 128.18713651 -18.5954389 122.89579948 -9.375 117.625 C-8.27414062 116.99529297 -7.17328125 116.36558594 -6.0390625 115.71679688 C-4.96140625 115.10126953 -3.88375 114.48574219 -2.7734375 113.8515625 C-1.6999707 113.20276123 -0.62650391 112.55395996 0.47949219 111.88549805 C3.21255773 110.42173486 5.4387702 109.48363131 8.34082031 108.56176758 C13.04528017 106.88078035 17.0583005 105.19333939 20 101 C22.65732606 92.17882418 21.88326553 82.60583774 21.56219482 73.49542236 C21.45826991 70.05672135 21.44609413 66.61776557 21.42578125 63.17773438 C21.36763628 56.44784214 21.21045957 49.72678217 21 43 C14.07 43 7.14 43 0 43 C0 28.81 0 14.62 0 0 Z " fill="#F05525" transform="translate(343,211)"/>
<path d="M0 0 C3.66106392 3.00085455 6.96377054 6.28295267 10.24755859 9.68798828 C10.89982422 10.30931641 11.55208984 10.93064453 12.22412109 11.57080078 C26.78832223 26.40101472 32.05699585 49.06773997 32.27490234 69.21630859 C32.04566101 90.78955529 27.34788197 110.28952344 14.24755859 127.68798828 C13.70486328 128.41501953 13.16216797 129.14205078 12.60302734 129.89111328 C1.67060749 143.40369062 -14.90180023 151.56394935 -31.75244141 154.68798828 C-35.86824912 155.09084273 -39.93145068 155.16675227 -44.06494141 155.12548828 C-45.15726074 155.11646484 -46.24958008 155.10744141 -47.375 155.09814453 C-66.70393546 154.68573281 -83.25366961 147.53646919 -96.75244141 133.68798828 C-97.50912109 132.96353516 -98.26580078 132.23908203 -99.04541016 131.49267578 C-115.17571436 115.11250456 -119.91532838 93.44536618 -120.00244141 71.18798828 C-120.02306641 69.90150391 -120.04369141 68.61501953 -120.06494141 67.28955078 C-120.15539289 44.81235718 -112.5342075 23.67441469 -96.69775391 7.51220703 C-71.42944611 -17.2111638 -28.84095663 -21.5925468 0 0 Z M-72.82666016 27.97705078 C-85.29022285 44.57711042 -86.76926691 66.20883389 -84.46386719 86.18896484 C-82.33438671 99.21738364 -76.48466481 112.5668246 -65.75244141 120.68798828 C-55.56996857 126.8159018 -45.40349187 128.31280487 -33.67431641 126.10986328 C-23.1292928 122.795713 -15.77888264 114.97106205 -10.22119141 105.66455078 C-4.79128127 94.660318 -3.55483055 83.75058957 -3.50244141 71.68798828 C-3.48181641 70.53169922 -3.46119141 69.37541016 -3.43994141 68.18408203 C-3.36882127 52.27095254 -7.50992864 36.17147695 -18.80712891 24.36767578 C-27.28148127 17.0504639 -35.90076118 14.16018949 -46.96337891 14.44970703 C-57.41963464 15.3430286 -65.79602268 20.21819285 -72.82666016 27.97705078 Z " fill="#F9BC25" transform="translate(1291.75244140625,156.31201171875)"/>
<path d="M0 0 C15.29210704 12.48224991 22.4181833 31.82260893 24.4375 50.9375 C24.57533595 55.14679773 24.57715618 59.35129168 24.5625 63.5625 C24.56636719 64.68140625 24.57023438 65.8003125 24.57421875 66.953125 C24.57228516 68.57347656 24.57228516 68.57347656 24.5703125 70.2265625 C24.56918457 71.20318848 24.56805664 72.17981445 24.56689453 73.18603516 C24.4375 75.9375 24.4375 75.9375 23.4375 80.9375 C-11.5425 80.9375 -46.5225 80.9375 -82.5625 80.9375 C-78.42572277 98.51880323 -74.98282318 110.67064224 -60.25 121.3125 C-46.78311384 129.52288137 -31.39313146 130.36746535 -16.3046875 126.9609375 C-11.05972051 125.5265102 -6.35443435 123.48167133 -1.5625 120.9375 C4.23060345 117.9375 4.23060345 117.9375 7.4375 117.9375 C9.27765498 121.2253978 11.10845047 124.51841326 12.9375 127.8125 C13.46214844 128.74964844 13.98679687 129.68679688 14.52734375 130.65234375 C15.02363281 131.54824219 15.51992188 132.44414062 16.03125 133.3671875 C16.72250977 134.60831299 16.72250977 134.60831299 17.42773438 135.87451172 C18.4375 137.9375 18.4375 137.9375 18.4375 139.9375 C11.11692264 144.50851027 3.84839488 148.44339959 -4.3125 151.3125 C-4.984021 151.55049316 -5.65554199 151.78848633 -6.34741211 152.03369141 C-28.19593158 159.38811357 -53.0196169 158.20953805 -73.8125 148.375 C-81.58944411 144.43091101 -87.54680804 139.17530981 -93.5625 132.9375 C-94.21476563 132.31617188 -94.86703125 131.69484375 -95.5390625 131.0546875 C-111.74279789 114.55499347 -114.82801292 90.97947557 -114.80908203 69.03857422 C-114.59464556 45.47112512 -107.32577651 25.69909464 -91.03125 8.31640625 C-66.47487754 -15.34630075 -28.24040588 -19.99149007 0 0 Z M-70.1875 28.5625 C-76.81680159 36.48125384 -81.5625 46.52361456 -81.5625 56.9375 C-56.4825 56.9375 -31.4025 56.9375 -5.5625 56.9375 C-5.5625 43.65524573 -8.03353179 31.68303567 -17.5625 21.9375 C-34.62428665 8.9431857 -56.22430003 13.86760396 -70.1875 28.5625 Z " fill="#F15625" transform="translate(737.5625,155.0625)"/>
<path d="M0 0 C-1.27401395 3.51832123 -2.74296777 6.25812527 -5.0390625 9.20703125 C-5.61914062 9.95791016 -6.19921875 10.70878906 -6.796875 11.48242188 C-7.40015625 12.25134766 -8.0034375 13.02027344 -8.625 13.8125 C-9.23601562 14.60076172 -9.84703125 15.38902344 -10.4765625 16.20117188 C-11.9792343 18.13820974 -13.48713386 20.07092079 -15 22 C-18.88416553 20.57533345 -22.22996516 18.72760079 -25.75 16.5625 C-36.59455125 10.14647398 -48.22900702 7.16456485 -60.828125 9.53125 C-66.79964738 11.17610047 -70.88125223 13.27589572 -74.75 18.25 C-77.0792833 23.37442325 -77.47043964 27.2946563 -76 32.625 C-69.4533196 43.67252318 -56.13340895 46.97950111 -44.78515625 51.45703125 C-43.69638184 51.88790039 -42.60760742 52.31876953 -41.48583984 52.76269531 C-39.34222867 53.6074463 -37.19555448 54.44447995 -35.04541016 55.27246094 C-19.35658092 61.41602351 -5.3847049 69.38091464 2.02734375 85.19140625 C5.9317745 95.8251324 5.33385442 108.91079795 1.26171875 119.35546875 C-4.97459383 132.42662546 -14.87216474 141.24600955 -28.48828125 146.29296875 C-53.33414521 154.08719788 -78.35670922 150.86701096 -101.3828125 139.30078125 C-107.23619232 136.22742351 -112.75404821 133.025963 -118 129 C-116.70940058 125.45765856 -115.18892213 122.61039389 -112.9609375 119.57421875 C-112.38085938 118.77822266 -111.80078125 117.98222656 -111.203125 117.16210938 C-110.59984375 116.34548828 -109.9965625 115.52886719 -109.375 114.6875 C-108.76398438 113.85154297 -108.15296875 113.01558594 -107.5234375 112.15429688 C-106.02036533 110.09931539 -104.51245679 108.04807883 -103 106 C-98.94853066 107.55592482 -95.5321151 109.46278108 -91.875 111.8125 C-77.10056346 121.08331177 -62.13823713 125.76797843 -44.66796875 122.34765625 C-38.60592442 120.41543145 -34.037476 117.72656766 -31 112 C-28.84069305 105.97717972 -28.41496442 100.99258247 -31 95 C-33.99114343 90.54540931 -37.49768582 88.2151689 -42.1875 85.8125 C-42.91291992 85.43303223 -43.63833984 85.05356445 -44.38574219 84.66259766 C-52.04717802 80.77482312 -60.02660956 77.71882443 -68.0222168 74.59765625 C-82.75610467 68.80768726 -99.79329615 61.2848665 -107.3203125 46.38671875 C-111.78808098 34.84237991 -111.33873035 22.42323362 -107.26171875 10.8359375 C-105.39703585 6.64473073 -103.09130384 3.36691406 -100 0 C-99.47535156 -0.60328125 -98.95070313 -1.2065625 -98.41015625 -1.828125 C-72.75155117 -29.59979167 -27.02315802 -19.81698255 0 0 Z " fill="#F15625" transform="translate(1614,161)"/>
<path d="M0 0 C1.16781006 0.00523682 2.33562012 0.01047363 3.53881836 0.01586914 C4.67327393 0.0183667 5.80772949 0.02086426 6.9765625 0.0234375 C9.15560181 0.03709351 9.15560181 0.03709351 11.37866211 0.05102539 C18.27772461 0.08196289 18.27772461 0.08196289 25.31616211 0.11352539 C25.31616211 14.63352539 25.31616211 29.15352539 25.31616211 44.11352539 C39.17616211 44.11352539 53.03616211 44.11352539 67.31616211 44.11352539 C67.31616211 53.02352539 67.31616211 61.93352539 67.31616211 71.11352539 C53.45616211 71.11352539 39.59616211 71.11352539 25.31616211 71.11352539 C25.40716777 86.28358721 25.40716777 86.28358721 25.52514648 101.45336914 C25.57929852 107.64816968 25.63041478 113.84288308 25.66259766 120.0378418 C25.68876902 125.03710919 25.72926757 130.03608087 25.77934837 135.03516388 C25.79592408 136.9343114 25.80749584 138.83350995 25.81377602 140.73271942 C25.65979283 158.72354975 25.65979283 158.72354975 32.31616211 175.11352539 C38.66500896 180.12189645 45.54078163 180.73143642 53.31616211 180.11352539 C57.69656621 179.28284236 62.00538236 178.24865235 66.31616211 177.11352539 C67.93767069 181.77353653 69.24363944 186.45730526 70.44116211 191.23852539 C70.62291992 191.94106445 70.80467773 192.64360352 70.99194336 193.36743164 C71.84417134 196.75712037 72.31616211 199.59293855 72.31616211 203.11352539 C70.10906228 203.76356164 67.90042319 204.40837284 65.69116211 205.05102539 C63.84651367 205.59049805 63.84651367 205.59049805 61.96459961 206.14086914 C46.31072102 210.31411943 27.32505815 210.38710632 12.78881836 202.79321289 C1.96360714 196.20082137 -3.24600672 186.98675303 -6.54951477 174.96263123 C-9.03310287 163.79562536 -9.06991457 152.92457435 -8.97680664 141.52368164 C-8.97119775 139.48246068 -8.96693378 137.44123563 -8.96394348 135.40000916 C-8.95259639 130.07850609 -8.92321878 124.75725637 -8.88983154 119.43585205 C-8.85890972 113.98534571 -8.84539131 108.53479765 -8.83032227 103.08422852 C-8.79833743 92.42719938 -8.74565468 81.77042328 -8.68383789 71.11352539 C-16.27383789 71.11352539 -23.86383789 71.11352539 -31.68383789 71.11352539 C-31.68383789 62.53352539 -31.68383789 53.95352539 -31.68383789 45.11352539 C-19.30883789 44.61852539 -19.30883789 44.61852539 -6.68383789 44.11352539 C-6.68383789 40.81352539 -6.68383789 37.51352539 -6.68383789 34.11352539 C-6.51298059 31.3822195 -6.3177275 28.67558209 -6.06274414 25.95336914 C-5.99852768 25.23742081 -5.93431122 24.52147247 -5.8681488 23.78382874 C-5.73332105 22.29399784 -5.59627386 20.80436617 -5.45703125 19.31494141 C-5.24392152 17.02506127 -5.04063326 14.73444389 -4.83813477 12.44360352 C-4.7052505 10.98847237 -4.57180807 9.53339207 -4.43774414 8.07836914 C-4.31729736 6.76473389 -4.19685059 5.45109863 -4.07275391 4.09765625 C-3.55833075 0.15051613 -3.55833075 0.15051613 0 0 Z " fill="#F15625" transform="translate(1656.683837890625,102.886474609375)"/>
<path d="M0 0 C1.16781006 0.00523682 2.33562012 0.01047363 3.53881836 0.01586914 C4.67327393 0.0183667 5.80772949 0.02086426 6.9765625 0.0234375 C9.15560181 0.03709351 9.15560181 0.03709351 11.37866211 0.05102539 C18.27772461 0.08196289 18.27772461 0.08196289 25.31616211 0.11352539 C25.31616211 14.63352539 25.31616211 29.15352539 25.31616211 44.11352539 C39.17616211 44.11352539 53.03616211 44.11352539 67.31616211 44.11352539 C67.31616211 53.02352539 67.31616211 61.93352539 67.31616211 71.11352539 C53.45616211 71.11352539 39.59616211 71.11352539 25.31616211 71.11352539 C25.40716777 86.28358721 25.40716777 86.28358721 25.52514648 101.45336914 C25.57929852 107.64816968 25.63041478 113.84288308 25.66259766 120.0378418 C25.68876902 125.03710919 25.72926757 130.03608087 25.77934837 135.03516388 C25.79592408 136.9343114 25.80749584 138.83350995 25.81377602 140.73271942 C25.65979283 158.72354975 25.65979283 158.72354975 32.31616211 175.11352539 C38.66500896 180.12189645 45.54078163 180.73143642 53.31616211 180.11352539 C57.69656621 179.28284236 62.00538236 178.24865235 66.31616211 177.11352539 C67.93767069 181.77353653 69.24363944 186.45730526 70.44116211 191.23852539 C70.62291992 191.94106445 70.80467773 192.64360352 70.99194336 193.36743164 C71.84417134 196.75712037 72.31616211 199.59293855 72.31616211 203.11352539 C70.10906228 203.76356164 67.90042319 204.40837284 65.69116211 205.05102539 C63.84651367 205.59049805 63.84651367 205.59049805 61.96459961 206.14086914 C46.31072102 210.31411943 27.32505815 210.38710632 12.78881836 202.79321289 C1.96360714 196.20082137 -3.24600672 186.98675303 -6.54951477 174.96263123 C-9.03310287 163.79562536 -9.06991457 152.92457435 -8.97680664 141.52368164 C-8.97119775 139.48246068 -8.96693378 137.44123563 -8.96394348 135.40000916 C-8.95259639 130.07850609 -8.92321878 124.75725637 -8.88983154 119.43585205 C-8.85890972 113.98534571 -8.84539131 108.53479765 -8.83032227 103.08422852 C-8.79833743 92.42719938 -8.74565468 81.77042328 -8.68383789 71.11352539 C-16.27383789 71.11352539 -23.86383789 71.11352539 -31.68383789 71.11352539 C-31.68383789 62.53352539 -31.68383789 53.95352539 -31.68383789 45.11352539 C-19.30883789 44.61852539 -19.30883789 44.61852539 -6.68383789 44.11352539 C-6.68383789 40.81352539 -6.68383789 37.51352539 -6.68383789 34.11352539 C-6.51298059 31.3822195 -6.3177275 28.67558209 -6.06274414 25.95336914 C-5.99852768 25.23742081 -5.93431122 24.52147247 -5.8681488 23.78382874 C-5.73332105 22.29399784 -5.59627386 20.80436617 -5.45703125 19.31494141 C-5.24392152 17.02506127 -5.04063326 14.73444389 -4.83813477 12.44360352 C-4.7052505 10.98847237 -4.57180807 9.53339207 -4.43774414 8.07836914 C-4.31729736 6.76473389 -4.19685059 5.45109863 -4.07275391 4.09765625 C-3.55833075 0.15051613 -3.55833075 0.15051613 0 0 Z " fill="#F15625" transform="translate(802.683837890625,102.886474609375)"/>
<path d="M0 0 C11.22 0 22.44 0 34 0 C34.00808685 2.52178894 34.01617371 5.04357788 34.02450562 7.64178467 C34.10151697 31.36301512 34.18945558 55.08418694 34.28752708 78.80533981 C34.337687 91.00172415 34.38412952 103.19810165 34.421875 115.39453125 C34.45477647 126.02272068 34.49459744 136.65085757 34.54279006 147.27898908 C34.56807338 152.9084916 34.58984927 158.5379592 34.60334396 164.16750336 C34.61614764 169.46322329 34.63818378 174.75882355 34.66738319 180.05447769 C34.67647222 182.00075362 34.68215228 183.94704882 34.68421364 185.89334488 C34.68752681 188.54579367 34.70297858 191.1979012 34.7215271 193.85028076 C34.71959237 194.62460095 34.71765763 195.39892114 34.71566427 196.19670558 C34.75466684 199.91442724 34.79462173 202.9074748 37 206 C39.29629994 207.14814997 41.07698086 207.30769809 43.625 207.5625 C44.44226562 207.64628906 45.25953125 207.73007812 46.1015625 207.81640625 C46.72804688 207.87699219 47.35453125 207.93757812 48 208 C48.67245837 211.58227157 49.33695539 215.1659751 50 218.75 C50.19078125 219.76578125 50.3815625 220.7815625 50.578125 221.828125 C50.75859375 222.8078125 50.9390625 223.7875 51.125 224.796875 C51.37636719 226.14797363 51.37636719 226.14797363 51.6328125 227.52636719 C52 230 52 230 52 234 C45.98967223 236.08113843 40.4583774 236.36640654 34.125 236.375 C33.18269531 236.39949219 32.24039062 236.42398438 31.26953125 236.44921875 C22.41639594 236.48595375 15.13236295 233.87221135 8.56640625 227.82421875 C1.39048777 219.46722641 -0.32016636 208.71370742 -0.24050903 198.05918884 C-0.24221788 197.20620368 -0.24392673 196.35321852 -0.24568737 195.47438532 C-0.24895825 192.64160842 -0.23801848 189.80907311 -0.22705078 186.97631836 C-0.22648615 184.93560797 -0.22680425 182.89489717 -0.22793579 180.85418701 C-0.22850827 175.33213295 -0.21677094 169.81016624 -0.20278788 164.28813243 C-0.190263 158.51057935 -0.18910863 152.73302415 -0.18673706 146.95545959 C-0.18052746 136.02283096 -0.16412366 125.09024245 -0.14403808 114.15763146 C-0.12166291 101.7078466 -0.11068158 89.25805981 -0.10064721 76.80825984 C-0.07975699 51.20548359 -0.04418698 25.60274574 0 0 Z " fill="#F15625" transform="translate(1356,75)"/>
<path d="M0 0 C-3.61702128 25.23404255 -3.61702128 25.23404255 -6 30 C-7.21623047 29.76603516 -7.21623047 29.76603516 -8.45703125 29.52734375 C-21.44980493 27.24339867 -30.61738177 27.88389566 -42 35 C-46.69987034 38.48293962 -49.65526169 41.96933529 -52.6875 46.9375 C-53.06455078 47.53240234 -53.44160156 48.12730469 -53.83007812 48.74023438 C-54.91949244 50.47987503 -55.98632769 52.21492976 -57 54 C-57.50818268 54.82364548 -58.01636536 55.64729095 -58.53994751 56.49589539 C-60.45708509 61.09699753 -60.44004686 65.0178911 -60.43237305 69.95263672 C-60.4425647 70.9386235 -60.45275635 71.92461029 -60.46325684 72.94047546 C-60.49335774 76.1869375 -60.50264853 79.43310431 -60.51171875 82.6796875 C-60.52856755 84.935567 -60.54671806 87.19143712 -60.56611633 89.44729614 C-60.61360038 95.37541779 -60.64342025 101.30350141 -60.66955566 107.23175049 C-60.69936907 113.28478504 -60.74589679 119.33768861 -60.79101562 125.390625 C-60.87703083 137.26036319 -60.94283898 149.13008775 -61 161 C-72.22 161 -83.44 161 -95 161 C-95 108.2 -95 55.4 -95 1 C-85.76 1 -76.52 1 -67 1 C-65.75622427 10.09511 -64.6493099 18.80412618 -65 28 C-64.34 28 -63.68 28 -63 28 C-62.74347656 27.27425781 -62.48695312 26.54851562 -62.22265625 25.80078125 C-56.29074667 12.21234939 -43.18290015 3.49287506 -30 -2 C-20.43561327 -4.65166491 -9.01962226 -3.8655524 0 0 Z " fill="#F9BC25" transform="translate(1169,146)"/>
<path d="M0 0 C11.22 0 22.44 0 34 0 C34 52.8 34 105.6 34 160 C22.78 160 11.56 160 0 160 C0 107.2 0 54.4 0 0 Z " fill="#F15625" transform="translate(1436,147)"/>
<path d="M0 0 C2.09504323 1.05695719 4.15140488 2.19220286 6.17578125 3.37890625 C7.21903564 3.98549072 8.26229004 4.5920752 9.3371582 5.21704102 C10.649021 5.99104248 11.96088379 6.76504395 13.3125 7.5625 C17.499375 10.016875 21.68625 12.47125 26 15 C26 27.21 26 39.42 26 52 C21.483125 54.660625 16.96625 57.32125 12.3125 60.0625 C10.89622314 60.9069165 9.47994629 61.75133301 8.02075195 62.62133789 C6.89628662 63.27352295 5.77182129 63.92570801 4.61328125 64.59765625 C4.03429077 64.94824097 3.45530029 65.29882568 2.85876465 65.66003418 C0.29178874 67.12898464 -1.54223776 68.01418219 -4.52954102 67.92163086 C-7.60543311 66.77413677 -10.30393688 65.31206612 -13.140625 63.65625 C-13.70827576 63.32709595 -14.27592651 62.99794189 -14.86077881 62.65881348 C-16.66111575 61.61245638 -18.45543611 60.55622078 -20.25 59.5 C-21.47099645 58.78974928 -22.69234727 58.08010738 -23.9140625 57.37109375 C-32.81242344 52.18757656 -32.81242344 52.18757656 -34 51 C-34.48549161 46.14323084 -34.65641834 41.28819826 -34.78955078 36.41040039 C-34.84612113 34.77325456 -34.92782023 33.13676773 -35.03564453 31.50219727 C-35.73420138 20.70960348 -35.73420138 20.70960348 -34 16 C-30.18796528 12.08674532 -25.96776805 10.1506061 -21 8 C-19.45273118 7.09856489 -17.91840584 6.17401567 -16.40625 5.21484375 C-15.10546701 4.45350312 -13.80343545 3.69429058 -12.5 2.9375 C-11.50613281 2.33518555 -11.50613281 2.33518555 -10.4921875 1.72070312 C-6.44285635 -0.61451872 -4.45039054 -1.35342096 0 0 Z " fill="#F15525" transform="translate(230,199)"/>
<path d="M0 0 C4.33175984 2.6033949 7.42662258 6.56573997 8.9765625 11.38671875 C10.40830424 19.34597123 9.00863003 25.35705703 4.52734375 32.15625 C0.05103799 36.76045021 -5.56109688 38.50118237 -11.84765625 38.71875 C-17.96145145 38.60813857 -23.18741019 36.93601955 -27.5234375 32.5 C-32.29902582 26.39089418 -33.38828543 21.09061336 -32.66015625 13.40625 C-30.83012201 7.91614729 -28.7120892 3.06502706 -23.4609375 0.2109375 C-14.93064307 -3.52514858 -8.5836923 -3.70328789 0 0 Z " fill="#F15625" transform="translate(1464.66015625,79.59375)"/>
<path d="M0 0 C0.33 0 0.66 0 1 0 C1 5.94 1 11.88 1 18 C-0.98 18.99 -0.98 18.99 -3 20 C-2.67 14.72 -2.34 9.44 -2 4 C-1.34 4 -0.68 4 0 4 C0 2.68 0 1.36 0 0 Z " fill="#F59114" transform="translate(331,276)"/>
<path d="M0 0 C5.28 0 10.56 0 16 0 C10.23655914 4.32258065 10.23655914 4.32258065 7 5 C4.40292484 3.93411707 2.35731463 2.57154308 0 1 C0 0.67 0 0.34 0 0 Z " fill="#FB9613" transform="translate(219,349)"/>
<path d="M0 0 C0.33 0 0.66 0 1 0 C1 2.64 1 5.28 1 8 C0.34 8 -0.32 8 -1 8 C-1.33 8.99 -1.66 9.98 -2 11 C-2 8.69 -2 6.38 -2 4 C-1.34 4 -0.68 4 0 4 C0 2.68 0 1.36 0 0 Z " fill="#FAA218" transform="translate(331,276)"/>
</svg>
